<svg width="855" height="214" viewBox="0 0 855 214" fill="none" xmlns="http://www.w3.org/2000/svg">
<path d="M242.285 55.32C242.285 40.44 217.485 42.6 217.485 33C217.485 29.56 219.805 27.24 223.245 27.24C226.285 27.24 229.405 29.16 229.405 32.44C229.405 33.56 228.925 34.6 228.925 35.72C228.925 38.84 231.565 40.84 234.525 40.84C237.965 40.84 240.125 38.28 240.125 34.92C240.125 26.84 229.485 24.36 223.165 24.36C215.965 24.36 205.725 27.32 205.725 36.2C205.725 50.28 229.085 48.6 229.085 57.88C229.085 61.88 225.965 64.28 222.125 64.28C218.445 64.28 215.005 62.04 215.005 58.04C215.005 56.52 215.565 55.16 215.565 53.72C215.565 50.36 213.005 48.12 209.725 48.12C205.645 48.12 203.325 51.4 203.325 55.32C203.325 64.68 215.325 67.56 222.685 67.56C230.045 67.56 242.285 64.68 242.285 55.32ZM330.188 63.56C330.188 62.76 329.708 62.44 329.068 62.28C328.188 62.04 327.308 61.96 326.508 61.56C323.788 60.12 324.108 55.16 324.108 52.6V38.68C324.108 29.48 318.268 23.24 309.068 23.24C302.828 23.24 296.428 26.36 293.228 31.8C290.908 26.12 285.548 23.24 279.628 23.24C274.188 23.24 268.588 25.72 265.308 30.28C265.308 27.08 264.428 24.84 260.748 24.84C257.708 24.84 249.948 27.96 246.828 29C246.188 29.24 245.628 29.8 245.628 30.52C245.628 31.24 246.108 31.64 246.668 31.96C247.468 32.44 248.268 32.68 248.988 33.16C251.868 35.08 252.188 38.76 252.188 41.96V52.12C252.188 58.04 251.708 60.6 246.348 63.24C245.548 63.72 244.748 64.28 244.748 65.32C244.748 66.52 246.028 67 247.068 67H270.428C271.468 67 272.668 66.52 272.668 65.32C272.668 64.28 271.948 63.72 271.148 63.24C265.788 60.6 265.308 58.04 265.308 52.12V39.64C265.308 34.92 268.428 30.68 273.388 30.68C278.828 30.68 281.308 35.64 281.308 40.52V52.12C281.308 58.04 280.828 60.6 275.468 63.24C274.668 63.72 273.948 64.28 273.948 65.32C273.948 66.52 275.148 67 276.188 67H299.548C300.668 67 301.868 66.52 301.868 65.32C301.868 64.28 301.068 63.72 300.268 63.24C294.908 60.6 294.508 58.04 294.508 52.12V39.56C294.508 34.92 297.548 30.68 302.508 30.68C308.028 30.68 310.508 35.64 310.508 40.52V58.36C310.508 65.96 314.108 67.48 321.068 67.48C323.388 67.48 330.188 66.6 330.188 63.56ZM370.982 58.44C371.222 58.12 371.382 57.8 371.382 57.4C371.382 56.76 370.822 56.44 370.262 56.44C369.862 56.44 369.462 56.52 369.062 56.68C366.102 58.12 363.062 59.08 359.782 59.08C351.222 59.08 345.702 53.4 344.182 45.32H368.342C370.662 45.32 372.102 44.52 372.102 41.96C372.102 30.6 363.782 24.68 352.982 24.68C340.342 24.68 330.902 33.32 330.902 46.2C330.902 59 340.102 67.72 352.742 67.72C359.862 67.72 367.062 64.6 370.982 58.44ZM343.782 41.16C343.782 35.64 346.262 27.56 352.982 27.56C358.822 27.56 361.222 32.6 361.222 37.8C361.222 40.2 359.462 41.48 357.142 41.48H343.782V41.16ZM399.009 63.56C399.009 62.76 398.529 62.44 397.889 62.28C397.009 62.04 396.209 61.96 395.409 61.56C392.609 60.2 392.929 55.24 392.929 52.6V5.32C392.929 2.36 390.769 0.839998 387.969 0.839998C384.769 0.839998 377.169 3.96 373.969 5C373.249 5.24 372.689 5.8 372.689 6.52C372.689 7.24 373.249 7.64 373.809 8.04C374.689 8.52 375.569 8.76 376.449 9.4C379.009 11.32 379.249 15 379.249 17.96V58.36C379.249 65.96 382.929 67.48 389.889 67.48C392.209 67.48 399.009 66.6 399.009 63.56ZM424.556 63.56C424.556 62.76 424.076 62.44 423.436 62.28C422.556 62.04 421.756 61.96 420.956 61.56C418.156 60.2 418.476 55.24 418.476 52.6V5.32C418.476 2.36 416.316 0.839998 413.516 0.839998C410.316 0.839998 402.716 3.96 399.516 5C398.796 5.24 398.236 5.8 398.236 6.52C398.236 7.24 398.796 7.64 399.356 8.04C400.236 8.52 401.116 8.76 401.996 9.4C404.556 11.32 404.796 15 404.796 17.96V58.36C404.796 65.96 408.476 67.48 415.436 67.48C417.756 67.48 424.556 66.6 424.556 63.56ZM474.385 62.68C474.625 61.8 473.745 60.92 472.465 61.48C471.425 61.96 470.465 62.2 469.745 62.2C466.145 62.2 465.265 57.72 465.265 51.56V29.8H469.985C472.465 29.8 472.465 25.96 469.985 25.96H465.265V18.76C465.265 17 464.625 16.04 463.425 16.04C462.625 16.04 461.665 16.44 460.545 17.24L447.905 26.12C445.985 27.48 445.985 29.8 448.705 29.8C452.145 29.8 452.145 30.12 452.145 39V56.2C452.145 64.76 457.825 67.64 463.505 67.64C468.625 67.64 473.665 65.32 474.385 62.68ZM533.178 63.56C533.178 62.76 532.698 62.44 531.978 62.28C531.178 62.04 530.378 61.96 529.578 61.56C526.778 60.2 527.098 55.16 527.098 52.6V38.68C527.098 29.56 521.258 23.24 512.058 23.24C506.458 23.24 500.778 25.72 497.418 30.36V5.32C497.418 2.52 495.738 0.839998 492.938 0.839998C489.818 0.839998 482.058 3.96 478.938 5C478.298 5.24 477.738 5.8 477.738 6.52C477.738 7.24 478.218 7.64 478.858 8.04C479.658 8.44 480.538 8.76 481.338 9.32C484.058 11.32 484.298 14.92 484.298 17.96V52.12C484.298 58.04 483.818 60.6 478.458 63.24C477.658 63.72 476.938 64.28 476.938 65.32C476.938 66.52 478.138 67 479.178 67H502.538C503.578 67 504.778 66.52 504.778 65.32C504.778 64.28 504.058 63.72 503.258 63.24C497.898 60.6 497.418 58.04 497.418 52.12V39.64C497.418 34.92 500.538 30.68 505.498 30.68C510.938 30.68 513.418 35.64 513.418 40.52V58.36C513.418 65.96 517.098 67.48 524.058 67.48C526.378 67.48 533.178 66.6 533.178 63.56ZM562.078 61.88C562.878 66.28 565.678 67.72 571.918 67.72C573.758 67.72 581.038 67 581.038 63.8C581.038 63.16 580.638 62.6 579.918 62.52C575.678 61.8 574.958 60.36 574.958 52.84V38.92C574.958 27.72 569.838 24.52 555.358 24.52C549.038 24.52 537.918 27.8 537.918 35.64C537.918 39.24 540.798 41.08 543.918 41.08C552.878 41.08 547.918 27.56 556.958 27.56C561.598 27.56 561.838 32.76 561.838 40.76V42.2C554.078 42.2 535.198 42.76 535.198 55.64C535.198 64.2 541.758 68.04 548.638 68.04C553.758 68.04 559.118 65.88 562.078 61.88ZM548.878 54.28C548.878 47.32 554.318 45.32 561.838 45.72V55.16C561.838 58.76 558.238 61.16 554.878 61.16C551.758 61.16 548.878 59.16 548.878 54.28ZM609.385 62.68C609.625 61.8 608.745 60.92 607.465 61.48C606.425 61.96 605.465 62.2 604.745 62.2C601.145 62.2 600.265 57.72 600.265 51.56V29.8H604.985C607.465 29.8 607.465 25.96 604.985 25.96H600.265V18.76C600.265 17 599.625 16.04 598.425 16.04C597.625 16.04 596.665 16.44 595.545 17.24L582.905 26.12C580.985 27.48 580.985 29.8 583.705 29.8C587.145 29.8 587.145 30.12 587.145 39V56.2C587.145 64.76 592.825 67.64 598.505 67.64C603.625 67.64 608.665 65.32 609.385 62.68ZM652.868 25.88C652.868 14.12 641.108 10.2 631.188 10.2C620.948 10.2 609.748 13.72 609.748 25.8C609.748 30.28 612.948 33.32 617.348 33.32C621.108 33.32 624.788 30.92 624.788 26.84C624.788 24.28 623.668 21.8 623.668 19.24C623.668 14.76 626.708 13.88 630.628 13.88C636.628 13.88 637.908 19.72 637.908 24.52C637.908 37.48 626.948 37.4 627.988 51.56H630.468C630.468 40.04 652.868 40.36 652.868 25.88ZM635.908 61.24C635.908 57.64 632.868 54.84 629.348 54.84C625.748 54.84 622.708 57.64 622.708 61.24C622.708 64.84 625.748 67.72 629.348 67.72C632.868 67.72 635.908 64.84 635.908 61.24ZM39.0431 167.32C39.0431 152.44 14.2431 154.6 14.2431 145C14.2431 141.56 16.5631 139.24 20.0031 139.24C23.0431 139.24 26.1631 141.16 26.1631 144.44C26.1631 145.56 25.6831 146.6 25.6831 147.72C25.6831 150.84 28.3231 152.84 31.2831 152.84C34.7231 152.84 36.8831 150.28 36.8831 146.92C36.8831 138.84 26.2431 136.36 19.9231 136.36C12.7231 136.36 2.48313 139.32 2.48313 148.2C2.48313 162.28 25.8431 160.6 25.8431 169.88C25.8431 173.88 22.7231 176.28 18.8831 176.28C15.2031 176.28 11.7631 174.04 11.7631 170.04C11.7631 168.52 12.3231 167.16 12.3231 165.72C12.3231 162.36 9.76312 160.12 6.48313 160.12C2.40313 160.12 0.0831251 163.4 0.0831251 167.32C0.0831251 176.68 12.0831 179.56 19.4431 179.56C26.8031 179.56 39.0431 176.68 39.0431 167.32ZM87.1169 157.96C87.1169 146.2 79.8369 136.36 65.3569 136.36C50.9569 136.36 43.6769 145.48 43.6769 157.88C43.6769 170.36 50.8769 179.56 65.3569 179.56C79.8369 179.56 87.1169 169.72 87.1169 157.96ZM65.5169 140.76C77.1169 140.76 76.7169 175.08 65.2769 175.08C53.8369 175.08 53.9169 140.76 65.5169 140.76ZM174.993 175.56C174.993 174.76 174.513 174.44 173.873 174.28C172.993 174.04 172.113 173.96 171.313 173.56C168.593 172.12 168.913 167.16 168.913 164.6V150.68C168.913 141.48 163.073 135.24 153.873 135.24C147.633 135.24 141.233 138.36 138.033 143.8C135.713 138.12 130.353 135.24 124.433 135.24C118.993 135.24 113.393 137.72 110.113 142.28C110.113 139.08 109.233 136.84 105.553 136.84C102.513 136.84 94.7531 139.96 91.6331 141C90.9931 141.24 90.4331 141.8 90.4331 142.52C90.4331 143.24 90.9131 143.64 91.4731 143.96C92.2731 144.44 93.0731 144.68 93.7931 145.16C96.6731 147.08 96.9931 150.76 96.9931 153.96V164.12C96.9931 170.04 96.5131 172.6 91.1531 175.24C90.3531 175.72 89.5531 176.28 89.5531 177.32C89.5531 178.52 90.8331 179 91.8731 179H115.233C116.273 179 117.473 178.52 117.473 177.32C117.473 176.28 116.753 175.72 115.953 175.24C110.593 172.6 110.113 170.04 110.113 164.12V151.64C110.113 146.92 113.233 142.68 118.193 142.68C123.633 142.68 126.113 147.64 126.113 152.52V164.12C126.113 170.04 125.633 172.6 120.273 175.24C119.473 175.72 118.753 176.28 118.753 177.32C118.753 178.52 119.953 179 120.993 179H144.353C145.473 179 146.673 178.52 146.673 177.32C146.673 176.28 145.873 175.72 145.073 175.24C139.713 172.6 139.313 170.04 139.313 164.12V151.56C139.313 146.92 142.353 142.68 147.313 142.68C152.833 142.68 155.313 147.64 155.313 152.52V170.36C155.313 177.96 158.913 179.48 165.873 179.48C168.193 179.48 174.993 178.6 174.993 175.56ZM215.786 170.44C216.026 170.12 216.186 169.8 216.186 169.4C216.186 168.76 215.626 168.44 215.066 168.44C214.666 168.44 214.266 168.52 213.866 168.68C210.906 170.12 207.866 171.08 204.586 171.08C196.026 171.08 190.506 165.4 188.986 157.32H213.146C215.466 157.32 216.906 156.52 216.906 153.96C216.906 142.6 208.586 136.68 197.786 136.68C185.146 136.68 175.706 145.32 175.706 158.2C175.706 171 184.906 179.72 197.546 179.72C204.666 179.72 211.866 176.6 215.786 170.44ZM188.586 153.16C188.586 147.64 191.066 139.56 197.786 139.56C203.626 139.56 206.026 144.6 206.026 149.8C206.026 152.2 204.266 153.48 201.946 153.48H188.586V153.16ZM247.237 174.68C247.477 173.8 246.597 172.92 245.317 173.48C244.277 173.96 243.317 174.2 242.597 174.2C238.997 174.2 238.117 169.72 238.117 163.56V141.8H242.837C245.317 141.8 245.317 137.96 242.837 137.96H238.117V130.76C238.117 129 237.477 128.04 236.277 128.04C235.477 128.04 234.517 128.44 233.397 129.24L220.757 138.12C218.837 139.48 218.837 141.8 221.557 141.8C224.997 141.8 224.997 142.12 224.997 151V168.2C224.997 176.76 230.677 179.64 236.357 179.64C241.477 179.64 246.517 177.32 247.237 174.68ZM306.029 175.56C306.029 174.76 305.549 174.44 304.829 174.28C304.029 174.04 303.229 173.96 302.429 173.56C299.629 172.2 299.949 167.16 299.949 164.6V150.68C299.949 141.56 294.109 135.24 284.909 135.24C279.309 135.24 273.629 137.72 270.269 142.36V117.32C270.269 114.52 268.589 112.84 265.789 112.84C262.669 112.84 254.909 115.96 251.789 117C251.149 117.24 250.589 117.8 250.589 118.52C250.589 119.24 251.069 119.64 251.709 120.04C252.509 120.44 253.389 120.76 254.189 121.32C256.909 123.32 257.149 126.92 257.149 129.96V164.12C257.149 170.04 256.669 172.6 251.309 175.24C250.509 175.72 249.789 176.28 249.789 177.32C249.789 178.52 250.989 179 252.029 179H275.389C276.429 179 277.629 178.52 277.629 177.32C277.629 176.28 276.909 175.72 276.109 175.24C270.749 172.6 270.269 170.04 270.269 164.12V151.64C270.269 146.92 273.389 142.68 278.349 142.68C283.789 142.68 286.269 147.64 286.269 152.52V170.36C286.269 177.96 289.949 179.48 296.909 179.48C299.229 179.48 306.029 178.6 306.029 175.56ZM325.626 125.16C325.626 120.52 321.866 116.76 317.226 116.76C312.586 116.76 308.826 120.52 308.826 125.16C308.826 129.8 312.586 133.56 317.226 133.56C321.866 133.56 325.626 129.8 325.626 125.16ZM331.626 175.48C331.626 174.76 331.146 174.44 330.506 174.2C329.626 173.96 328.826 173.96 328.026 173.56C325.226 172.12 325.546 167.16 325.546 164.6V141.24C325.546 138.44 323.786 136.84 320.986 136.84C319.866 136.84 318.746 137.08 317.706 137.4L306.586 141C305.946 141.16 305.386 141.72 305.386 142.44C305.386 143.24 305.866 143.64 306.426 143.96C307.306 144.44 308.106 144.68 308.906 145.24C311.626 147.16 311.866 150.84 311.866 153.96V170.36C311.866 177.88 315.546 179.48 322.506 179.48C324.826 179.48 331.626 178.6 331.626 175.48ZM389.936 175.56C389.936 174.76 389.456 174.44 388.736 174.28C387.936 174.04 387.136 173.96 386.336 173.56C383.536 172.2 383.856 167.16 383.856 164.6V150.68C383.856 141.56 378.016 135.24 368.816 135.24C363.216 135.24 357.536 137.72 354.176 142.36C354.176 139.16 353.296 136.84 349.696 136.84C346.576 136.84 338.816 139.96 335.696 141C335.056 141.24 334.496 141.8 334.496 142.52C334.496 143.24 334.976 143.64 335.616 143.96C336.416 144.44 337.296 144.76 338.096 145.32C340.816 147.24 341.056 150.92 341.056 153.96V164.12C341.056 170.04 340.576 172.6 335.216 175.24C334.416 175.72 333.696 176.28 333.696 177.32C333.696 178.52 334.896 179 335.936 179H359.296C360.336 179 361.536 178.52 361.536 177.32C361.536 176.28 360.816 175.72 360.016 175.24C354.656 172.6 354.176 170.04 354.176 164.12V151.64C354.176 146.92 357.296 142.68 362.256 142.68C367.696 142.68 370.176 147.64 370.176 152.52V170.36C370.176 177.96 373.856 179.48 380.816 179.48C383.136 179.48 389.936 178.6 389.936 175.56ZM437.551 193.8C437.551 184.52 428.911 179.48 420.431 179.48C418.031 179.48 408.271 181.16 408.271 184.44C408.271 185.08 408.911 185.32 409.471 185.32C411.311 185.32 413.391 183.96 415.951 183.96C422.431 183.96 424.751 189.24 424.751 195C424.751 201.96 420.831 209.24 413.071 209.24C404.591 209.24 400.991 200.68 400.991 194.2C400.991 182.6 412.431 175.8 421.391 172.84C429.231 170.28 434.671 163.96 434.671 155.48C434.671 149.08 431.391 143.4 425.951 140.12C426.591 140.2 427.311 140.2 428.031 140.2C432.271 140.2 440.191 139.48 440.191 133.64C440.191 130.92 437.951 128.52 435.151 128.52C428.911 128.52 427.631 137.32 419.071 137.32C417.071 137.32 415.071 136.92 412.991 136.92C401.871 136.92 391.311 143.32 391.311 155.48C391.311 166.52 400.271 173.24 410.671 173.96C400.511 177.32 388.431 182.68 388.431 195.16C388.431 208.04 400.591 213.56 411.791 213.56C423.551 213.56 437.551 207.4 437.551 193.8ZM404.751 155.72C404.751 150.76 406.431 140.44 413.071 140.44C419.631 140.44 421.231 150.36 421.231 155.24C421.231 160.2 419.551 170.52 412.911 170.52C406.351 170.52 404.751 160.6 404.751 155.72ZM446.428 141.48C449.788 139.48 454.188 133.96 454.188 129.4C454.188 124.52 450.908 122.28 447.708 122.28C444.588 122.28 441.468 124.44 441.468 128.44C441.468 130.28 442.268 132.04 443.788 133.16C446.268 135 448.588 136.28 445.148 140.76C444.588 141.4 445.388 142.12 446.428 141.48ZM492.871 167.32C492.871 152.44 468.071 154.6 468.071 145C468.071 141.56 470.391 139.24 473.831 139.24C476.871 139.24 479.991 141.16 479.991 144.44C479.991 145.56 479.511 146.6 479.511 147.72C479.511 150.84 482.151 152.84 485.111 152.84C488.551 152.84 490.711 150.28 490.711 146.92C490.711 138.84 480.071 136.36 473.751 136.36C466.551 136.36 456.311 139.32 456.311 148.2C456.311 162.28 479.671 160.6 479.671 169.88C479.671 173.88 476.551 176.28 472.711 176.28C469.031 176.28 465.591 174.04 465.591 170.04C465.591 168.52 466.151 167.16 466.151 165.72C466.151 162.36 463.591 160.12 460.311 160.12C456.231 160.12 453.911 163.4 453.911 167.32C453.911 176.68 465.911 179.56 473.271 179.56C480.631 179.56 492.871 176.68 492.871 167.32ZM854.588 173.48C854.588 169.88 851.628 167 847.948 167C844.348 167 841.388 169.88 841.388 173.48C841.388 177 844.348 179.88 847.948 179.88C851.628 179.88 854.588 177 854.588 173.48Z" fill="#367227"/>
<path d="M554.614 170.44C554.854 170.12 555.014 169.8 555.014 169.4C555.014 168.76 554.454 168.44 553.894 168.44C553.494 168.44 553.094 168.52 552.694 168.68C549.734 170.12 546.694 171.08 543.414 171.08C533.094 171.08 527.414 162.76 527.414 153.16C527.414 147.64 529.894 139.56 536.614 139.56C544.054 139.56 542.614 144.6 543.254 149.96C543.574 153.16 545.734 155.48 549.094 155.48C552.614 155.48 554.854 152.84 554.854 149.4C554.854 139.96 544.454 136.68 536.614 136.68C523.974 136.68 514.534 145.32 514.534 158.2C514.534 171 523.734 179.72 536.374 179.72C543.494 179.72 550.774 176.6 554.614 170.44ZM603.054 157.96C603.054 146.2 595.774 136.36 581.294 136.36C566.894 136.36 559.614 145.48 559.614 157.88C559.614 170.36 566.814 179.56 581.294 179.56C595.774 179.56 603.054 169.72 603.054 157.96ZM581.454 140.76C593.054 140.76 592.654 175.08 581.214 175.08C569.774 175.08 569.854 140.76 581.454 140.76ZM651.101 157.96C651.101 146.2 643.821 136.36 629.341 136.36C614.941 136.36 607.661 145.48 607.661 157.88C607.661 170.36 614.861 179.56 629.341 179.56C643.821 179.56 651.101 169.72 651.101 157.96ZM629.501 140.76C641.101 140.76 640.701 175.08 629.261 175.08C617.821 175.08 617.901 140.76 629.501 140.76ZM707.253 175.24C707.253 174.36 706.693 173.96 705.893 173.72C704.453 173.32 703.413 173.08 702.133 172.12C694.293 166.52 694.773 150.68 679.573 150.68C678.453 150.68 677.333 150.76 676.293 150.92C678.213 148.84 682.693 143.48 685.813 143.48C689.173 143.48 690.053 149.08 695.333 149.08C698.773 149.08 702.213 146.52 702.213 142.92C702.213 137.4 698.213 135.24 693.173 135.24C684.773 135.24 677.733 144.68 672.613 150.28V117.32C672.613 114.52 670.853 112.84 668.053 112.84C665.013 112.84 657.253 115.96 654.133 117C653.413 117.24 652.853 117.8 652.853 118.52C652.853 119.24 653.413 119.64 653.973 120.04C654.773 120.44 655.573 120.68 656.373 121.24C659.173 123.16 659.413 126.84 659.413 129.96V164.12C659.413 169.96 658.933 172.6 653.653 175.24C652.773 175.72 652.053 176.28 652.053 177.32C652.053 178.52 653.253 179 654.293 179H677.733C678.773 179 679.973 178.52 679.973 177.32C679.973 176.28 679.253 175.72 678.373 175.24C673.093 172.6 672.613 169.96 672.613 164.12V155.88C681.333 156.2 682.693 180.04 696.373 180.04C699.093 180.04 707.253 178.92 707.253 175.24ZM725.626 125.16C725.626 120.52 721.866 116.76 717.226 116.76C712.586 116.76 708.826 120.52 708.826 125.16C708.826 129.8 712.586 133.56 717.226 133.56C721.866 133.56 725.626 129.8 725.626 125.16ZM731.626 175.48C731.626 174.76 731.146 174.44 730.506 174.2C729.626 173.96 728.826 173.96 728.026 173.56C725.226 172.12 725.546 167.16 725.546 164.6V141.24C725.546 138.44 723.786 136.84 720.986 136.84C719.866 136.84 718.746 137.08 717.706 137.4L706.586 141C705.946 141.16 705.386 141.72 705.386 142.44C705.386 143.24 705.866 143.64 706.426 143.96C707.306 144.44 708.106 144.68 708.906 145.24C711.626 147.16 711.866 150.84 711.866 153.96V170.36C711.866 177.88 715.546 179.48 722.506 179.48C724.826 179.48 731.626 178.6 731.626 175.48ZM789.936 175.56C789.936 174.76 789.456 174.44 788.736 174.28C787.936 174.04 787.136 173.96 786.336 173.56C783.536 172.2 783.856 167.16 783.856 164.6V150.68C783.856 141.56 778.016 135.24 768.816 135.24C763.216 135.24 757.536 137.72 754.176 142.36C754.176 139.16 753.296 136.84 749.696 136.84C746.576 136.84 738.816 139.96 735.696 141C735.056 141.24 734.496 141.8 734.496 142.52C734.496 143.24 734.976 143.64 735.616 143.96C736.416 144.44 737.296 144.76 738.096 145.32C740.816 147.24 741.056 150.92 741.056 153.96V164.12C741.056 170.04 740.576 172.6 735.216 175.24C734.416 175.72 733.696 176.28 733.696 177.32C733.696 178.52 734.896 179 735.936 179H759.296C760.336 179 761.536 178.52 761.536 177.32C761.536 176.28 760.816 175.72 760.016 175.24C754.656 172.6 754.176 170.04 754.176 164.12V151.64C754.176 146.92 757.296 142.68 762.256 142.68C767.696 142.68 770.176 147.64 770.176 152.52V170.36C770.176 177.96 773.856 179.48 780.816 179.48C783.136 179.48 789.936 178.6 789.936 175.56ZM837.551 193.8C837.551 184.52 828.911 179.48 820.431 179.48C818.031 179.48 808.271 181.16 808.271 184.44C808.271 185.08 808.911 185.32 809.471 185.32C811.311 185.32 813.391 183.96 815.951 183.96C822.431 183.96 824.751 189.24 824.751 195C824.751 201.96 820.831 209.24 813.071 209.24C804.591 209.24 800.991 200.68 800.991 194.2C800.991 182.6 812.431 175.8 821.391 172.84C829.231 170.28 834.671 163.96 834.671 155.48C834.671 149.08 831.391 143.4 825.951 140.12C826.591 140.2 827.311 140.2 828.031 140.2C832.271 140.2 840.191 139.48 840.191 133.64C840.191 130.92 837.951 128.52 835.151 128.52C828.911 128.52 827.631 137.32 819.071 137.32C817.071 137.32 815.071 136.92 812.991 136.92C801.871 136.92 791.311 143.32 791.311 155.48C791.311 166.52 800.271 173.24 810.671 173.96C800.511 177.32 788.431 182.68 788.431 195.16C788.431 208.04 800.591 213.56 811.791 213.56C823.551 213.56 837.551 207.4 837.551 193.8ZM804.751 155.72C804.751 150.76 806.431 140.44 813.071 140.44C819.631 140.44 821.231 150.36 821.231 155.24C821.231 160.2 819.551 170.52 812.911 170.52C806.351 170.52 804.751 160.6 804.751 155.72Z" fill="#E4572E"/>
</svg>
