<svg width="159" height="59" viewBox="0 0 159 59" fill="none" xmlns="http://www.w3.org/2000/svg">
<path d="M42.7623 40.1034C42.7623 29.1291 35.0123 23.8042 27.4561 23.8042C22.9353 23.8042 18.479 25.8173 15.8957 29.6486V8.41426C15.8957 5.94667 14.3457 4.77781 12.279 4.77781C11.5686 4.77781 10.7936 4.90768 10.0186 5.16743L0.976977 8.15452C-0.314688 8.60908 -0.314688 10.0377 0.912393 10.5572C3.56031 11.726 5.30405 12.8299 5.30405 18.6742V46.5971C5.30405 52.7011 4.85197 53.7401 4.27072 56.0129C3.81864 57.6363 4.52905 58.3506 5.56239 58.3506C6.01447 58.3506 6.53113 58.2208 7.0478 57.961C8.5978 57.2467 10.6645 56.4675 13.054 56.4675C15.5082 56.4675 17.2519 58.7402 24.2915 58.7402C34.0436 58.7402 42.7623 53.4804 42.7623 40.1034ZM15.8957 46.727V37.3761C15.8957 32.8305 19.6415 29.7135 23.5165 29.7135C27.6498 29.7135 31.8478 33.2201 31.8478 42.5061C31.8478 51.792 27.2623 56.0779 23.0644 56.0779C19.3186 56.0779 15.8957 52.831 15.8957 46.727Z" fill="#F3ECD1"/>
<path d="M68.7026 53.9999C69.3484 57.5714 71.6088 58.7402 76.6463 58.7402C78.1317 58.7402 84.0088 58.1558 84.0088 55.5584C84.0088 55.0389 83.6859 54.5843 83.1046 54.5194C79.6817 53.9349 79.1005 52.7661 79.1005 46.662V35.363C79.1005 26.2719 74.9671 23.6744 63.2776 23.6744C58.1755 23.6744 49.1984 26.3368 49.1984 32.7006C49.1984 35.6228 51.5234 37.1164 54.0422 37.1164C61.2755 37.1164 57.2713 26.142 64.5692 26.142C68.3151 26.142 68.5088 30.3629 68.5088 36.8566V38.0255C62.2443 38.0255 47.0026 38.48 47.0026 48.9348C47.0026 55.883 52.2984 59 57.8526 59C61.9859 59 66.313 57.2467 68.7026 53.9999ZM58.0463 47.8309C58.0463 42.1814 62.438 40.558 68.5088 40.8827V48.5452C68.5088 51.4674 65.6026 53.4155 62.8901 53.4155C60.3713 53.4155 58.0463 51.792 58.0463 47.8309Z" fill="#F3ECD1"/>
<path d="M116.109 48.6751C116.109 36.5968 96.0879 38.3501 96.0879 30.5577C96.0879 27.7654 97.9608 25.8822 100.738 25.8822C103.192 25.8822 105.711 27.4407 105.711 30.1031C105.711 31.0122 105.323 31.8564 105.323 32.7655C105.323 35.2981 107.455 36.9215 109.844 36.9215C112.621 36.9215 114.365 34.8435 114.365 32.1162C114.365 25.5576 105.775 23.5445 100.673 23.5445C94.8608 23.5445 86.5941 25.9472 86.5941 33.1552C86.5941 44.584 105.452 43.2204 105.452 50.7531C105.452 53.9999 102.934 55.948 99.8337 55.948C96.8629 55.948 94.0858 54.1298 94.0858 50.8829C94.0858 49.6491 94.5379 48.5452 94.5379 47.3763C94.5379 44.649 92.4712 42.8308 89.8233 42.8308C86.5296 42.8308 84.6566 45.4932 84.6566 48.6751C84.6566 56.2727 94.3441 58.6104 100.286 58.6104C106.227 58.6104 116.109 56.2727 116.109 48.6751Z" fill="#F3ECD1"/>
<path d="M129.166 15.3443C128.026 10.9812 124.616 7.1279 120.589 4.24046C109.202 -3.92437 112.491 1.18611 113.525 7.14399C114.559 13.102 119.075 18.2501 121.598 19.2946C130.176 22.8458 131.641 24.8094 129.166 15.3443ZM138.376 55.2986C138.376 54.7142 137.989 54.4544 137.472 54.2596C136.762 54.0648 136.116 54.0648 135.47 53.7401C133.21 52.5713 133.468 48.5452 133.468 46.4672V27.5056C133.468 25.2328 132.047 23.9341 129.787 23.9341C128.883 23.9341 127.978 24.1289 127.139 24.3887L118.162 27.3108C117.645 27.4407 117.193 27.8953 117.193 28.4797C117.193 29.1291 117.58 29.4537 118.033 29.7135C118.743 30.1031 119.389 30.2979 120.035 30.7525C122.23 32.3109 122.424 35.2981 122.424 37.8307V51.1427C122.424 57.2467 125.395 58.5454 131.014 58.5454C132.887 58.5454 138.376 57.8311 138.376 55.2986Z" fill="#F3ECD1"/>
<path d="M159 55.3636C159 54.7142 158.613 54.4544 158.096 54.3246C157.385 54.1298 156.74 54.0648 156.094 53.7401C153.833 52.6362 154.092 48.6101 154.092 46.4672V8.08958C154.092 5.68693 152.348 4.45312 150.088 4.45312C147.504 4.45312 141.369 6.98566 138.785 7.82983C138.204 8.02465 137.752 8.4792 137.752 9.06363C137.752 9.64806 138.204 9.97275 138.656 10.2974C139.367 10.6871 140.077 10.8819 140.788 11.4014C142.854 12.9598 143.048 15.9469 143.048 18.3496V51.1427C143.048 57.3117 146.019 58.5454 151.638 58.5454C153.51 58.5454 159 57.8312 159 55.3636Z" fill="#F3ECD1"/>
</svg>
